<svg xmlns="http://www.w3.org/2000/svg" viewBox="0 0 640 640">
<g transform="translate(0,640) scale(0.1,-0.1)" fill="#000000" stroke="none">
<path d="M1686 5315 c-137 -28 -256 -110 -256 -174 0 -47 49 -93 130 -120 136 -45 215 -142 214 -261 0 -73 -18 -105 -119 -223 -229 -267 -389 -599 -459 -949 -95 -473 -18 -961 220 -1391 441 -797 1334 -1214 2219 -1036 235 48 519 164 721 297 521 343 872 914 935 1521 23 225 -3 376 -73 409 -45 21 -72 0 -110 -86 -18 -42 -54 -109 -79 -149 -26 -40 -52 -94 -59 -121 -7 -26 -15 -49 -16 -51 -2 -2 -13 8 -24 22 -29 37 -74 62 -175 97 -49 18 -112 45 -140 61 -63 35 -90 37 -111 4 -24 -36 -10 -111 39 -208 32 -64 62 -103 152 -196 62 -64 120 -131 130 -150 44 -87 25 -225 -55 -386 -107 -217 -284 -385 -491 -468 -104 -42 -227 -49 -213 -13 7 19 27 26 98 36 80 12 86 21 46 66 -43 50 -60 93 -60 155 0 126 95 195 170 124 28 -26 32 -28 46 -13 23 23 5 51 -50 78 -77 37 -152 5 -198 -84 -30 -57 -30 -155 0 -215 12 -25 22 -48 22 -52 0 -4 -15 -10 -34 -13 -42 -8 -96 -56 -96 -85 0 -12 11 -33 25 -46 20 -21 34 -25 82 -25 338 1 757 430 780 800 8 133 -12 174 -151 315 -82 82 -122 132 -148 182 -39 73 -63 147 -53 163 3 5 29 -3 59 -20 29 -17 84 -41 122 -54 39 -13 83 -30 100 -39 35 -18 84 -70 110 -115 23 -40 58 -41 62 -2 9 89 29 148 75 223 27 45 61 109 74 142 14 33 31 66 39 74 12 13 16 9 33 -30 28 -63 34 -157 21 -294 -46 -477 -251 -910 -594 -1250 -314 -311 -673 -495 -1121 -571 -140 -24 -464 -24 -595 -1 -526 95 -952 340 -1263 727 -624 775 -608 1840 38 2594 93 108 114 149 121 229 14 150 -79 266 -269 337 -32 12 -62 31 -68 43 -10 18 -7 25 28 57 47 45 129 77 232 91 139 20 308 -4 561 -81 207 -63 264 -69 402 -41 283 59 306 62 488 68 327 10 579 -35 868 -157 330 -140 567 -337 683 -569 45 -90 65 -171 75 -296 4 -49 13 -102 20 -116 15 -29 62 -73 155 -143 82 -62 129 -123 136 -176 l6 -40 -50 0 c-128 0 -388 135 -525 272 -46 46 -78 92 -118 168 -30 58 -70 122 -88 142 -37 41 -90 63 -128 54 -37 -10 -74 -54 -74 -87 0 -34 0 -34 -71 -12 -80 25 -219 23 -289 -5 -97 -38 -194 -135 -259 -258 l-32 -61 -102 -7 c-56 -3 -156 -17 -222 -31 -65 -13 -120 -23 -121 -22 -1 1 2 27 8 57 22 121 -12 214 -91 248 -33 14 -44 13 -121 -2 -232 -47 -463 -178 -655 -371 -121 -121 -198 -228 -275 -379 -97 -191 -151 -390 -171 -624 -37 -447 110 -860 408 -1142 147 -139 279 -197 425 -187 256 17 414 249 339 497 -19 62 -31 81 -79 129 -61 61 -128 91 -203 91 -109 0 -178 -90 -116 -148 22 -20 30 -22 95 -16 58 6 76 4 97 -10 80 -53 68 -224 -22 -307 -52 -49 -89 -61 -168 -57 -62 3 -80 8 -131 40 -52 32 -61 42 -78 89 -26 75 -27 242 -2 323 39 131 126 253 228 321 67 45 97 75 108 111 10 28 8 41 -11 81 -18 41 -22 69 -24 181 l-3 132 35 -31 c32 -27 41 -30 72 -24 20 4 63 10 96 14 55 6 61 9 91 48 l32 42 12 -52 c7 -29 23 -78 36 -109 29 -70 30 -93 4 -158 -27 -68 -25 -94 11 -192 45 -120 47 -193 14 -353 -46 -219 -33 -353 39 -400 31 -20 33 -40 7 -55 -22 -11 -45 -5 -80 22 -18 14 -27 15 -37 7 -20 -16 -17 -27 12 -54 54 -50 155 -37 171 23 11 40 6 53 -40 100 -42 42 -42 44 -45 126 -3 61 3 117 23 216 36 175 32 268 -15 388 l-33 83 23 74 c25 81 23 140 -6 197 -9 17 -25 68 -36 112 -30 127 -52 135 -114 41 -36 -54 -37 -55 -86 -55 -27 0 -58 -5 -69 -10 -16 -9 -29 -4 -76 30 -31 22 -62 40 -69 40 -25 0 -36 -39 -29 -98 4 -32 7 -97 6 -145 -1 -70 3 -96 19 -127 38 -75 31 -91 -80 -170 -174 -124 -269 -329 -256 -552 3 -54 3 -98 1 -98 -15 0 -113 145 -150 221 -148 308 -137 694 30 1046 113 239 326 457 580 594 81 44 257 120 263 114 5 -5 -47 -130 -79 -192 -34 -65 -36 -82 -8 -117 25 -31 76 -35 160 -10 173 52 342 183 450 350 l44 67 106 -7 c263 -16 560 -96 844 -228 355 -165 480 -195 590 -140 79 39 105 84 107 194 2 128 -31 181 -187 298 -52 39 -101 83 -109 98 -7 15 -17 69 -21 121 -9 120 -26 186 -76 291 -86 181 -248 347 -459 470 -486 284 -1035 365 -1570 233 -162 -40 -239 -37 -425 20 -82 25 -193 56 -245 67 -123 28 -318 35 -414 15z m2637 -1054 c19 -21 57 -81 83 -132 61 -117 143 -206 272 -293 155 -104 361 -186 435 -172 20 4 27 1 27 -10 0 -32 -32 -75 -72 -95 -35 -18 -54 -21 -122 -17 -97 6 -160 27 -381 131 -327 153 -621 237 -892 254 l-102 6 31 61 c17 34 57 87 92 122 79 79 149 108 256 107 72 -1 101 -8 249 -61 57 -21 76 -20 85 4 4 10 -7 22 -29 35 -60 35 -56 99 5 99 19 0 38 -12 63 -39z m-1336 -147 c36 -23 47 -86 32 -178 l-14 -79 -117 -47 c-211 -85 -370 -185 -513 -322 -172 -164 -282 -336 -354 -553 -149 -448 -61 -917 223 -1182 125 -118 197 -154 307 -156 148 -3 264 106 277 259 7 88 -4 129 -44 173 -42 48 -98 65 -163 50 -47 -10 -66 -3 -56 24 7 17 55 37 91 37 46 0 132 -41 164 -77 54 -61 73 -117 74 -213 1 -67 -4 -95 -21 -132 -32 -70 -94 -131 -166 -164 -53 -24 -74 -28 -147 -28 -101 0 -154 19 -259 89 -167 112 -329 337 -416 575 -52 145 -66 231 -72 440 -5 169 -2 211 16 319 38 225 137 469 259 641 57 80 196 226 278 291 133 106 313 196 479 240 73 19 105 18 142 -7z m483 -241 c0 -5 -12 -26 -28 -49 -100 -148 -240 -256 -396 -303 -74 -23 -112 -26 -121 -11 -3 5 14 49 38 97 25 48 53 113 62 145 18 56 18 56 74 72 122 34 371 66 371 49z"/>
<path d="M3193 3208 c-8 -13 -25 -233 -25 -324 0 -35 8 -67 26 -102 14 -28 26 -60 26 -70 0 -11 -15 -52 -34 -93 -71 -155 -72 -248 -1 -514 25 -93 48 -202 51 -241 6 -63 4 -78 -20 -129 -31 -68 -32 -85 -8 -115 41 -51 147 -29 187 40 22 38 25 114 15 355 -4 106 2 155 20 155 17 0 21 -63 15 -245 -8 -216 -2 -259 45 -299 58 -49 144 -43 169 11 10 21 8 34 -14 80 -38 85 -34 145 26 379 44 168 52 214 53 294 1 100 -7 132 -55 236 -35 74 -36 88 -4 156 25 52 25 56 19 223 -4 94 -11 180 -15 193 -13 35 -45 26 -104 -29 l-54 -51 -82 0 -81 0 -52 51 c-51 50 -87 64 -103 39z m94 -100 l43 -42 102 0 103 -1 43 44 c23 24 44 42 46 40 2 -2 6 -69 9 -149 7 -141 6 -146 -19 -200 -35 -74 -32 -110 13 -205 34 -72 38 -89 41 -177 4 -90 1 -112 -46 -300 -66 -264 -70 -297 -42 -373 11 -33 23 -67 26 -76 8 -22 -19 -30 -57 -17 -55 19 -61 51 -53 286 7 224 3 249 -41 278 -25 16 -27 16 -53 -3 -46 -34 -55 -93 -41 -275 12 -161 8 -216 -17 -256 -20 -30 -59 -45 -84 -32 -18 10 -18 12 5 63 39 82 34 151 -24 385 -28 108 -53 226 -57 262 -8 78 11 160 56 249 37 75 39 125 5 190 -25 47 -25 51 -19 200 4 83 10 151 13 151 3 0 24 -19 48 -42z"/>
<path d="M3823 3112 c-14 -9 -33 -78 -33 -123 0 -20 -7 -56 -15 -79 -22 -62 -19 -122 10 -190 l25 -60 -31 -97 c-42 -131 -43 -201 -1 -348 57 -197 53 -306 -14 -386 -39 -47 -44 -85 -15 -120 15 -19 28 -23 61 -23 102 3 175 161 168 365 -3 76 -5 84 -23 84 -18 0 -21 -9 -26 -105 -7 -113 -20 -173 -50 -233 -21 -40 -57 -64 -83 -54 -23 9 -20 22 15 62 69 79 76 196 24 399 -44 170 -45 226 -5 346 17 50 30 100 30 111 0 11 -11 45 -25 75 -29 63 -31 95 -10 154 8 23 15 60 15 80 0 68 8 73 48 28 32 -35 40 -39 71 -35 20 3 58 0 85 -5 47 -10 49 -9 85 26 l38 37 6 -121 c7 -116 6 -123 -18 -168 -45 -84 -29 -145 52 -205 63 -46 165 -153 187 -196 52 -100 69 -206 54 -333 -8 -66 -7 -93 1 -101 21 -21 40 16 52 98 28 201 -37 381 -183 508 -152 131 -156 138 -113 210 13 23 24 58 25 77 1 72 -9 261 -15 280 -10 31 -41 24 -89 -20 l-44 -40 -73 6 c-70 7 -76 9 -107 46 -39 44 -63 60 -79 50z"/>
</g>
</svg>
